<svg viewBox="0 0 102 36" fill="none" xmlns="http://www.w3.org/2000/svg">
<path d="M42.4074 34.2511C42.0567 34.2511 41.7734 33.9669 41.7734 33.615V12.9678C41.7734 8.82433 45.1348 5.45485 49.2624 5.45485L55.3404 5.46297C59.4572 5.47109 62.8051 8.83787 62.8051 12.9678V17.3631C62.8051 21.5066 59.4437 24.8788 55.3162 24.8788H46.7292C46.3785 24.8788 46.0952 24.5946 46.0952 24.2428C46.0952 23.8909 46.3785 23.6067 46.7292 23.6067H55.3162C58.7477 23.6067 61.5399 20.8056 61.5399 17.3631V12.9678C61.5399 9.53883 58.7585 6.74311 55.3404 6.73499L49.2651 6.72687C45.8336 6.72687 43.0441 9.528 43.0441 12.9706V33.6178C43.0414 33.9642 42.7581 34.2511 42.4074 34.2511ZM69.3202 24.9681C68.9695 24.9681 68.6862 24.6839 68.6862 24.3321V8.91094C68.6862 7.70388 67.7096 6.72416 66.5064 6.72416H63.8707C63.52 6.72416 63.2368 6.43999 63.2368 6.08815C63.2368 5.73632 63.52 5.45215 63.8707 5.45215H66.5064C68.4083 5.45215 69.9542 7.00292 69.9542 8.91094V24.3348C69.9542 24.6839 69.6709 24.9681 69.3202 24.9681Z" fill="#939598"/>
<path d="M68.7595 3.69831L67.5644 2.49937C67.2676 2.20166 67.2676 1.71992 67.5644 1.42222L68.7595 0.223279C69.0562 -0.0744263 69.5391 -0.0744263 69.8359 0.223279L71.031 1.42222C71.3278 1.71992 71.3278 2.20166 71.031 2.49937L69.8359 3.69831C69.5364 3.99601 69.0562 3.99601 68.7595 3.69831Z" fill="#32BCAD"/>
<path d="M76.9952 24.8324H74.381C74.0303 24.8324 73.7471 24.5482 73.7471 24.1964C73.7471 23.8445 74.0303 23.5604 74.381 23.5604H76.9952C78.1795 23.5604 79.2937 23.0976 80.1327 22.2559L86.2458 16.1232C86.7475 15.6198 87.4166 15.341 88.1288 15.341C88.841 15.341 89.5073 15.6198 90.0118 16.1232L96.1033 22.2342C96.9423 23.0759 98.0538 23.5387 99.2408 23.5387H101.367C101.717 23.5387 102.001 23.8229 102.001 24.1747C102.001 24.5266 101.717 24.8107 101.367 24.8107H99.2408C97.7166 24.8107 96.2841 24.2153 95.2077 23.1355L89.1162 17.0244C88.8518 16.7592 88.5038 16.6157 88.1315 16.6157C87.7592 16.6157 87.4085 16.7619 87.1441 17.0244L81.031 23.1571C79.9492 24.237 78.5194 24.8324 76.9952 24.8324ZM88.1288 14.9269C87.4166 14.9269 86.7502 14.6482 86.2458 14.1448L80.1327 8.01205C79.2937 7.17036 78.1795 6.70756 76.9952 6.70756H74.381C74.0303 6.70756 73.7471 6.42339 73.7471 6.07155C73.7471 5.71972 74.0303 5.43555 74.381 5.43555H76.9952C78.5194 5.43555 79.9519 6.03096 81.0283 7.11081L87.1414 13.2435C87.4058 13.5088 87.7538 13.6522 88.1288 13.6522C88.5011 13.6522 88.8518 13.5061 89.1135 13.2435L95.205 7.13247C96.2814 6.05261 97.7139 5.4572 99.2381 5.4572H101.364C101.715 5.4572 101.998 5.74137 101.998 6.0932C101.998 6.44504 101.715 6.72921 101.364 6.72921H99.2381C98.0538 6.72921 96.9397 7.19201 96.1007 8.0337L90.0091 14.1448C89.5073 14.6509 88.8383 14.9269 88.1288 14.9269Z" fill="#939598"/>
<path d="M26.8249 28.1156C25.5138 28.1156 24.2782 27.6041 23.3502 26.6731L18.3377 21.6418C17.987 21.2873 17.372 21.29 17.0212 21.6418L11.9845 26.692C11.0565 27.623 9.82364 28.1345 8.50984 28.1345H7.52246L13.8757 34.5081C15.8585 36.4973 19.0769 36.4973 21.0598 34.5081L27.4292 28.1183H26.8249V28.1156Z" fill="#32BCAD"/>
<path d="M8.51081 10.3184C9.82192 10.3184 11.0575 10.8299 11.9855 11.7609L17.0195 16.811C17.381 17.1737 17.9745 17.1764 18.3387 16.811L23.3538 11.7798C24.2819 10.8488 25.5147 10.3373 26.8286 10.3373H27.4328L21.0581 3.94748C19.0752 1.95826 15.8568 1.95826 13.8739 3.94748L7.52344 10.3184H8.51081Z" fill="#32BCAD"/>
<path d="M32.7001 15.6226L28.8505 11.7606C28.7668 11.7958 28.6751 11.8147 28.578 11.8147H26.8271C25.9234 11.8147 25.0358 12.1828 24.3965 12.8242L19.3813 17.8581C18.9119 18.3291 18.2968 18.5645 17.6791 18.5645C17.0613 18.5645 16.4462 18.3291 15.9768 17.8581L10.9428 12.808C10.3034 12.1666 9.41855 11.7985 8.5121 11.7985H6.3593C6.26758 11.7985 6.18125 11.7768 6.10032 11.7471L2.23714 15.6226C0.254288 17.6119 0.254288 20.8406 2.23714 22.8298L6.10301 26.7081C6.18395 26.6783 6.27027 26.6567 6.362 26.6567H8.5148C9.41855 26.6567 10.3061 26.2886 10.9455 25.6472L15.9768 20.5943C16.8859 19.6823 18.4722 19.6823 19.3813 20.5943L24.3965 25.6255C25.0358 26.267 25.9207 26.635 26.8271 26.635H28.578C28.6751 26.635 28.7668 26.6567 28.8505 26.6892L32.7001 22.8271C34.683 20.8406 34.683 17.6119 32.7001 15.6226Z" fill="#32BCAD"/>
<path d="M47.6351 31.8585C47.3518 31.8585 47.02 31.9261 46.6936 32.0019V33.2604C46.9202 33.3443 47.1792 33.3822 47.4274 33.3822C48.056 33.3822 48.3554 33.1684 48.3554 32.6136C48.3554 32.0939 48.1099 31.8585 47.6351 31.8585ZM46.4805 34.1968V31.7096H46.6531L46.672 31.8179C46.9634 31.7502 47.3653 31.6582 47.654 31.6582C47.8887 31.6582 48.1099 31.6934 48.2988 31.8449C48.5146 32.0209 48.582 32.3077 48.582 32.6163C48.582 32.941 48.4741 33.2469 48.1801 33.4174C47.975 33.5337 47.6972 33.5798 47.449 33.5798C47.1927 33.5798 46.9499 33.5392 46.6936 33.4634V34.1968H46.4805Z" fill="#939598"/>
<path d="M50.1592 31.8504C49.5306 31.8504 49.25 32.0479 49.25 32.6054C49.25 33.144 49.5279 33.3849 50.1592 33.3849C50.7851 33.3849 51.0656 33.19 51.0656 32.6352C51.0656 32.0966 50.7878 31.8504 50.1592 31.8504ZM50.9685 33.3849C50.7608 33.5365 50.4802 33.5798 50.1592 33.5798C49.8328 33.5798 49.5522 33.5337 49.3472 33.3849C49.1179 33.2225 49.0234 32.9546 49.0234 32.6217C49.0234 32.2888 49.1179 32.0209 49.3472 31.8531C49.5522 31.7042 49.8328 31.6582 50.1592 31.6582C50.4829 31.6582 50.7581 31.7042 50.9685 31.8531C51.2032 32.0182 51.2923 32.2888 51.2923 32.6163C51.2923 32.9519 51.1978 33.2225 50.9685 33.3849Z" fill="#939598"/>
<path d="M53.9461 33.5284L53.2447 32.0183H53.2312L52.5406 33.5284H52.3518L51.6045 31.707H51.8365L52.4597 33.2361H52.4732L53.1476 31.707H53.3418L54.0352 33.2361H54.0514L54.6583 31.707H54.885L54.1377 33.5284H53.9461Z" fill="#939598"/>
<path d="M56.2374 31.8474C55.6547 31.8474 55.4577 32.1072 55.4227 32.4834H57.0548C57.0359 32.0694 56.8255 31.8474 56.2374 31.8474ZM56.232 33.5795C55.884 33.5795 55.6574 33.5281 55.4766 33.3765C55.2635 33.1925 55.1934 32.9273 55.1934 32.6188C55.1934 32.3265 55.2905 32.0179 55.5306 31.8393C55.7329 31.6986 55.9784 31.6553 56.2374 31.6553C56.4721 31.6553 56.7419 31.6796 56.9631 31.8312C57.2248 32.0071 57.276 32.3183 57.276 32.6702H55.4146C55.4227 33.0464 55.5441 33.3765 56.2482 33.3765C56.5827 33.3765 56.8957 33.3224 57.187 33.271V33.4632C56.8849 33.52 56.5503 33.5795 56.232 33.5795Z" fill="#939598"/>
<path d="M57.8848 33.5281V31.7067H58.0574L58.0763 31.815C58.4594 31.7175 58.6402 31.6553 58.9774 31.6553H59.0017V31.8583H58.9504C58.6671 31.8583 58.4945 31.8988 58.0952 32.0017V33.5281H57.8848Z" fill="#939598"/>
<path d="M60.2372 31.8474C59.6544 31.8474 59.4575 32.1072 59.4224 32.4834H61.0546C61.0357 32.0694 60.8226 31.8474 60.2372 31.8474ZM60.2291 33.5795C59.8811 33.5795 59.6544 33.5281 59.4737 33.3765C59.2606 33.1925 59.1904 32.9273 59.1904 32.6188C59.1904 32.3265 59.2875 32.0179 59.5276 31.8393C59.73 31.6986 59.9755 31.6553 60.2345 31.6553C60.4692 31.6553 60.7389 31.6796 60.9602 31.8312C61.2218 32.0071 61.2731 32.3183 61.2731 32.6702H59.4116C59.4197 33.0464 59.5411 33.3765 60.2452 33.3765C60.5798 33.3765 60.8927 33.3224 61.1841 33.271V33.4632C60.8846 33.52 60.5501 33.5795 60.2291 33.5795Z" fill="#939598"/>
<path d="M63.5964 31.9748C63.3698 31.8909 63.1108 31.853 62.8626 31.853C62.2341 31.853 61.9346 32.0668 61.9346 32.6216C61.9346 33.1466 62.1801 33.3794 62.6522 33.3794C62.9355 33.3794 63.2673 33.3117 63.5937 33.2387V31.9748H63.5964ZM63.6369 33.5282L63.618 33.42C63.3267 33.4876 62.9247 33.5797 62.636 33.5797C62.4013 33.5797 62.1801 33.5472 61.9913 33.3929C61.7755 33.217 61.708 32.9328 61.708 32.6216C61.708 32.2968 61.8159 31.991 62.11 31.8232C62.315 31.7041 62.5929 31.6581 62.8438 31.6581C63.0946 31.6581 63.3401 31.7014 63.5937 31.7745V30.9409H63.8069V33.531H63.6369V33.5282Z" fill="#939598"/>
<path d="M66.9168 31.8587C66.6336 31.8587 66.3017 31.9263 65.9753 32.0021V33.2579C66.2046 33.3445 66.4609 33.3851 66.7091 33.3851C67.3377 33.3851 67.6371 33.1713 67.6371 32.6164C67.6371 32.0941 67.3916 31.8587 66.9168 31.8587ZM67.4618 33.4175C67.2567 33.5339 66.9789 33.5799 66.7334 33.5799C66.4636 33.5799 66.1938 33.5339 65.9213 33.4419L65.9106 33.5285H65.7676V30.9385H65.9807V31.8072C66.2721 31.7423 66.6632 31.6557 66.9411 31.6557C67.1758 31.6557 67.397 31.6909 67.5859 31.8424C67.8017 32.0183 67.8691 32.3052 67.8691 32.6137C67.8637 32.9412 67.7558 33.247 67.4618 33.4175Z" fill="#939598"/>
<path d="M68.1464 34.2267V34.0291C68.2517 34.04 68.3488 34.0481 68.4162 34.0481C68.6779 34.0481 68.8371 33.9723 68.9828 33.6719L69.0502 33.5284L68.1006 31.707H68.3461L69.1581 33.2795H69.1716L69.9432 31.707H70.1833L69.1635 33.7504C68.9774 34.1211 68.775 34.2429 68.4054 34.2429C68.3272 34.2456 68.2355 34.2402 68.1464 34.2267Z" fill="#939598"/>
<path d="M73.108 32.4888H72.4039V33.1275H73.1107C73.5963 33.1275 73.7797 33.0734 73.7797 32.8055C73.7797 32.5213 73.5288 32.4888 73.108 32.4888ZM72.9785 31.455H72.4039V32.1045H72.9812C73.4587 32.1045 73.6502 32.0477 73.6502 31.777C73.6502 31.4874 73.4101 31.455 72.9785 31.455ZM74.0711 33.3549C73.8121 33.52 73.4992 33.5281 72.9272 33.5281H71.8535V31.0571H72.903C73.3966 31.0571 73.6961 31.0652 73.9497 31.2168C74.1304 31.3251 74.2006 31.4902 74.2006 31.7067C74.2006 31.9665 74.0927 32.1397 73.8121 32.2561V32.2696C74.1277 32.3427 74.3328 32.5051 74.3328 32.8542C74.3355 33.0923 74.2491 33.2466 74.0711 33.3549Z" fill="#939598"/>
<path d="M76.4886 32.7651C76.2755 32.7462 76.0597 32.7354 75.8358 32.7354C75.4662 32.7354 75.3367 32.8111 75.3367 32.9816C75.3367 33.1413 75.4446 33.2279 75.7279 33.2279C75.9653 33.2279 76.2485 33.1738 76.4913 33.1197V32.7651H76.4886ZM76.5965 33.5283L76.5831 33.4201C76.2728 33.4959 75.914 33.5798 75.5984 33.5798C75.4041 33.5798 75.1964 33.5554 75.048 33.4471C74.9104 33.3497 74.8457 33.19 74.8457 33.006C74.8457 32.8003 74.9347 32.6109 75.1506 32.5134C75.3421 32.4241 75.5957 32.416 75.8304 32.416C76.0219 32.416 76.2755 32.4268 76.4886 32.4404V32.4079C76.4886 32.1237 76.3025 32.029 75.7926 32.029C75.5957 32.029 75.3529 32.0398 75.1236 32.0615V31.6934C75.3799 31.6717 75.6658 31.6582 75.9032 31.6582C76.2189 31.6582 76.548 31.6826 76.7476 31.8287C76.9553 31.9776 76.9958 32.1832 76.9958 32.4512V33.5283H76.5965Z" fill="#939598"/>
<path d="M79.362 33.5286V32.5218C79.362 32.1916 79.1921 32.0725 78.8899 32.0725C78.666 32.0725 78.3881 32.1293 78.1507 32.1889V33.5313H77.6436V31.7098H78.0563L78.0752 31.8262C78.3962 31.7423 78.7523 31.6611 79.0464 31.6611C79.2703 31.6611 79.4969 31.6936 79.6669 31.8479C79.8099 31.9778 79.8638 32.1591 79.8638 32.4189V33.534H79.362V33.5286Z" fill="#939598"/>
<path d="M81.2971 33.5795C81.0624 33.5795 80.8088 33.5471 80.6226 33.3874C80.3987 33.206 80.334 32.9219 80.334 32.616C80.334 32.3265 80.4284 32.0152 80.7036 31.8366C80.9302 31.6877 81.2108 31.6553 81.5021 31.6553C81.7098 31.6553 81.9149 31.6688 82.1415 31.6905V32.0802C81.958 32.0612 81.7395 32.0477 81.5642 32.0477C81.0813 32.0477 80.8547 32.1993 80.8547 32.6188C80.8547 33.0112 81.0246 33.1817 81.4185 33.1817C81.6478 33.1817 81.9176 33.1384 82.1819 33.087V33.4632C81.8987 33.52 81.5884 33.5795 81.2971 33.5795Z" fill="#939598"/>
<path d="M83.6776 32.0396C83.1947 32.0396 82.9843 32.1911 82.9843 32.6052C82.9843 33.0193 83.192 33.1979 83.6776 33.1979C84.1551 33.1979 84.3628 33.0491 84.3628 32.635C84.3628 32.2182 84.1578 32.0396 83.6776 32.0396ZM84.5463 33.3874C84.3224 33.5389 84.0337 33.5795 83.6776 33.5795C83.3134 33.5795 83.0248 33.5362 82.8036 33.3874C82.5527 33.2223 82.4609 32.9462 82.4609 32.6188C82.4609 32.2913 82.55 32.0125 82.8036 31.8474C83.0221 31.6986 83.3134 31.6553 83.6776 31.6553C84.0364 31.6553 84.3251 31.6986 84.5463 31.8474C84.7972 32.0125 84.8835 32.2913 84.8835 32.616C84.8835 32.9435 84.7945 33.2223 84.5463 33.3874Z" fill="#939598"/>
<path d="M87.8138 33.5797C87.509 33.5797 87.1772 33.5282 86.929 33.3225C86.6349 33.0763 86.5459 32.7001 86.5459 32.2914C86.5459 31.926 86.6619 31.4957 87.045 31.2413C87.3444 31.0465 87.714 31.0059 88.0863 31.0059C88.3588 31.0059 88.6394 31.0248 88.9442 31.0492V31.493C88.6825 31.4714 88.3588 31.4524 88.1079 31.4524C87.4065 31.4524 87.1097 31.7203 87.1097 32.2887C87.1097 32.8706 87.3876 33.1304 87.9029 33.1304C88.2401 33.1304 88.6178 33.0627 88.9982 32.9815V33.4227C88.6178 33.4985 88.2212 33.5797 87.8138 33.5797Z" fill="#939598"/>
<path d="M90.4893 31.98C90.0684 31.98 89.9066 32.1316 89.8742 32.4104H91.0963C91.0801 32.1154 90.9101 31.98 90.4893 31.98ZM90.4137 33.5795C90.1143 33.5795 89.8445 33.5443 89.6449 33.3765C89.429 33.1979 89.3535 32.9273 89.3535 32.616C89.3535 32.3373 89.4425 32.0288 89.6961 31.8474C89.92 31.6878 90.2033 31.6553 90.4893 31.6553C90.7483 31.6553 91.0531 31.685 91.277 31.8393C91.5684 32.045 91.5927 32.3616 91.5981 32.7378H89.8715C89.8823 33.0166 90.0307 33.1952 90.5405 33.1952C90.8562 33.1952 91.2096 33.1492 91.5063 33.1005V33.4577C91.1556 33.5173 90.7752 33.5795 90.4137 33.5795Z" fill="#939598"/>
<path d="M93.8513 33.5286V32.5218C93.8513 32.1916 93.6813 32.0725 93.3792 32.0725C93.1553 32.0725 92.8774 32.1293 92.64 32.1889V33.5313H92.1328V31.7098H92.5456L92.5645 31.8262C92.8855 31.7423 93.2389 31.6611 93.5357 31.6611C93.7596 31.6611 93.9862 31.6936 94.1561 31.8479C94.2991 31.9778 94.3531 32.1591 94.3531 32.4189V33.534H93.8513V33.5286Z" fill="#939598"/>
<path d="M95.7962 33.5797C95.5507 33.5797 95.3295 33.5121 95.2081 33.3199C95.119 33.19 95.0759 33.0141 95.0759 32.7678V32.0858H94.709V31.7069H95.0759L95.1298 31.1548H95.5804V31.7069H96.2953V32.0858H95.5804V32.6704C95.5804 32.8111 95.5911 32.9302 95.6316 33.0168C95.6856 33.1386 95.8043 33.1873 95.9634 33.1873C96.0821 33.1873 96.2251 33.1684 96.3276 33.1521V33.5148C96.155 33.5473 95.9661 33.5797 95.7962 33.5797Z" fill="#939598"/>
<path d="M96.7861 33.5283V31.7069H97.1989L97.2178 31.8233C97.5523 31.7286 97.8005 31.6582 98.1161 31.6582C98.1296 31.6582 98.1512 31.6582 98.1809 31.6609V32.0939C98.1242 32.0912 98.0541 32.0912 98.0055 32.0912C97.7573 32.0912 97.5712 32.121 97.2933 32.186V33.531H96.7861V33.5283Z" fill="#939598"/>
<path d="M100.022 32.7651C99.8087 32.7462 99.5929 32.7354 99.3663 32.7354C98.9967 32.7354 98.8672 32.8111 98.8672 32.9816C98.8672 33.1413 98.9751 33.2279 99.2584 33.2279C99.4958 33.2279 99.779 33.1738 100.022 33.1197V32.7651ZM100.13 33.5283L100.116 33.4201C99.806 33.4959 99.4472 33.5798 99.1316 33.5798C98.9373 33.5798 98.7296 33.5554 98.5812 33.4471C98.4437 33.3497 98.3789 33.19 98.3789 33.006C98.3789 32.8003 98.4679 32.6109 98.6838 32.5134C98.8753 32.4241 99.1289 32.416 99.3636 32.416C99.5551 32.416 99.8087 32.4268 100.022 32.4404V32.4079C100.022 32.1237 99.8357 32.029 99.3258 32.029C99.1289 32.029 98.8861 32.0398 98.6568 32.0615V31.6934C98.9131 31.6717 99.199 31.6582 99.4364 31.6582C99.7521 31.6582 100.081 31.6826 100.281 31.8287C100.489 31.9776 100.529 32.1832 100.529 32.4512V33.5283H100.13Z" fill="#939598"/>
<path d="M101.181 30.9385H101.688V33.5285H101.181V30.9385Z" fill="#939598"/>
</svg>
